<svg id="canvas" height="auto" xmlns="http://www.w3.org/2000/svg" version="1.1" xmlns:xlink="http://www.w3.org/1999/xlink" viewBox="0 0 1366 768" width="auto" style="width: auto; height: auto;"><rect width="1366" height="768" fill="#000000ff"/><path d="M154.18101823815698 359.93364659992915C102.10824149491782 358.9298751572602 9.956501161712879 281.3044887565445 -43.69223652319488 264.1776039197521C-97.34097420810264 247.05071908295963 -131.978389923267 271.56677729821524 -167.71140787128945 257.17233757917415C-203.4444258193119 242.77789786013307 -228.89458071521753 206.39163346781402 -258.0903442113295 177.81096560550532C-287.2861077074415 149.23029774319662 -328.42788843715226 114.80018047310801 -342.8859888479614 85.68833040532218C-357.34408925877057 56.57648033753634 -345.378788593562 40.46193055536128 -344.83894667618443 3.1398651987902895C-344.2991047588069 -34.1822001577807 -354.0508225595846 -94.89411307741756 -339.6469373436961 -138.24406173410375C-325.2430521278076 -181.59401039078992 -288.8821882326315 -223.28290462225937 -258.41563538085325 -256.95982674132676C-227.94908252907499 -290.6367488603942 -196.65113661712982 -325.1992091312207 -156.8476202330265 -340.3055944485084C-117.04410384892319 -355.41197976579605 -64.67687788312566 -347.6805935199367 -19.594537076233394 -347.5981386450529C25.487803730658868 -347.5156837701692 65.10189374173103 -356.6547809106611 113.64642460832692 -339.810865199206C162.19095547492282 -322.96694948775087 230.18772326766532 -281.1741299011796 271.672648123342 -246.53464437632238C313.1575729790187 -211.89515885146517 351.0535611802194 -172.52901251012145 362.5559737423873 -131.97395205006268C374.05838630455526 -91.41889159000391 345.97817307773744 -47.82524786405082 340.6871234963496 -3.2042816159697054C335.3960739149618 41.41668463211141 342.80012618074556 90.18442640646805 330.8096762540606 135.75184543842397C318.81922632737565 181.31926447037984 298.1825336055574 232.83659904884826 268.7444239362401 270.20023257576577C239.30631426692275 307.5638661026833 206.25379498139614 360.9374180425981 154.18101823815698 359.93364659992915C102.10824149491782 358.9298751572602 9.956501161712879 281.3044887565445 -43.69223652319488 264.1776039197521 " fill="url(#SvgjsLinearGradient1014)"/><defs><linearGradient gradientTransform="matrix(1,0,0,1,0,0)" id="SvgjsLinearGradient1014"><stop stop-color="#e71989ff" offset="0"/><stop stop-color="#e77719ff" offset="1"/></linearGradient><linearGradient gradientTransform="matrix(1,0,0,1,0,0)" id="SvgjsLinearGradient1015"><stop stop-color="#e71989ff" offset="0"/><stop stop-color="#e77719ff" offset="1"/></linearGradient></defs><path d="M1478.4602130995092 1179.8842861389987C1444.4519077725254 1205.143502554231 1417.7165812080962 1236.1743909924994 1376.6704067147787 1246.0759970298304C1335.6242322214612 1255.9776030671615 1275.232695415928 1258.9286089802247 1232.1831661396038 1239.293922362985C1189.1336368632797 1219.6592357457455 1152.5592404367462 1164.6859497265361 1118.3732310568334 1128.2678773263933C1084.187221676921 1091.8498049262503 1043.5825140909985 1065.8387031052391 1027.0671098601279 1020.7854879621275C1010.5517056292573 975.7322728190159 1019.5633673545237 907.0949871825901 1019.2808056716101 857.9485864677233C1018.9982439886965 808.8021857528565 1008.9972312024639 763.677128601805 1025.3717397626458 725.9070836729272C1041.7462483228276 688.1370387440494 1083.9076981501373 662.1428122618618 1117.5278570327011 631.3283168944566C1151.1480159152652 600.5138215270516 1193.3494647219325 559.0096616422953 1227.0926930580295 541.0201114684969C1260.8359213941262 523.0305612946984 1284.0388835801714 524.0055243205488 1319.9872270492829 523.3910158516658C1355.9355705183943 522.7765073827827 1403.9632583839666 520.9054866455109 1442.7827538726988 537.3330606551986C1481.602249361431 553.7606346648863 1520.5804804908835 591.9285616457014 1552.9041999816764 621.9564599097919C1585.2279194724692 651.9843581738824 1624.8247871563963 682.3256596107194 1636.725070817456 717.5004502397412C1648.6253544785159 752.675240868763 1627.9373387776213 793.3383975338434 1624.3059019480356 833.0052036839229C1620.67446511845 872.6720098340023 1622.2007270518343 911.9153713311321 1614.936449839942 955.501287140218C1607.6721726280498 999.0872029493037 1603.4662781334216 1057.1235320386409 1580.7202386766828 1094.5206985384377C1557.974199219944 1131.9178650382346 1512.4685184264933 1154.6250697237665 1478.4602130995092 1179.8842861389987C1444.4519077725254 1205.143502554231 1417.7165812080962 1236.1743909924994 1376.6704067147787 1246.0759970298304 " fill="url(#SvgjsLinearGradient1015)" transform="matrix(-1,1.2246467991473532e-16,-1.2246467991473532e-16,-1,2656.3760375976562,1776.8082275390625)"/></svg>