<svg id="canvas" height="auto" xmlns="http://www.w3.org/2000/svg" version="1.1" xmlns:xlink="http://www.w3.org/1999/xlink" viewBox="0 0 900 512" width="auto" style="width: auto; height: auto;"><rect width="900" height="512" fill="#00000000"/><path d="M116.15386720998163 305.4543817840421C78.60232712078971 323.36564359824445 35.646523672308376 322.70390289280624 -7.833879958180944 325.6970408448136C-51.314283588670264 328.690178796821 -103.05909442184907 347.80305066008134 -144.72855457295435 323.4132094960862C-186.39801472405964 299.0233683320911 -225.18095137752042 218.95018019246982 -257.8506408648126 179.35799386084273C-290.5203303521048 139.7658075292157 -326.0049365268653 121.87357687868018 -340.7466914967076 85.86009150632395C-355.48844646654993 49.846606133967725 -346.32840088364765 4.632705451546428 -346.30117068386636 -36.72291837329453C-346.2739404840851 -78.0785421981355 -357.6732720335334 -127.8929226902448 -340.5833102980201 -162.27365144272187C-323.49334856250675 -196.65438019519894 -276.40227136302036 -213.7905785158766 -243.76140027078648 -243.007290888157C-211.1205291785526 -272.22400326043737 -185.94288381889942 -319.940664431671 -144.73808374461674 -337.5739256764042C-103.53328367033407 -355.2071869211374 -44.77009502604875 -348.95043064925073 3.467400174909642 -348.8068583565563C51.704895375868034 -348.66328606386185 115.57344854885639 -353.69681555743625 144.68688746113372 -336.71249192023754C173.80032637341105 -319.7281682830388 157.11768130371308 -276.25427014509506 178.14803364857357 -246.90091653336407C199.17838599343406 -217.54756292163307 240.55756022391415 -203.4796342895029 270.86900153029694 -160.59237024985165C301.18044283667973 -117.7051062102004 345.77290126032415 -42.011933249615424 360.0166814868703 10.422667704543471C374.2604617134165 62.85726865870237 380.08856970789066 119.38076843259239 356.33168288957404 154.0152354751017C332.5747960712574 188.649702517611 257.50499652356916 192.9896122414425 217.4753605769704 218.22946995959921C177.44572463037161 243.46932767775593 153.70540729917354 287.5431199698397 116.15386720998163 305.4543817840421C78.60232712078971 323.36564359824445 35.646523672308376 322.70390289280624 -7.833879958180944 325.6970408448136 " fill="url(#SvgjsLinearGradient1012)"/><defs><linearGradient gradientTransform="matrix(1,0,0,1,0,0)" id="SvgjsLinearGradient1012"><stop stop-color="#e71989ff" offset="0"/><stop stop-color="#e77719ff" offset="1"/></linearGradient><linearGradient gradientTransform="matrix(1,0,0,1,0,0)" id="SvgjsLinearGradient1013"><stop stop-color="#e71989ff" offset="0"/><stop stop-color="#e77719ff" offset="1"/></linearGradient></defs><path d="M1042.6770485682514 959.4655532333012C997.2353668904235 967.2273579257957 924.4591065249128 920.646869142087 874.7763578464792 911.9030425555336C825.0936091680453 903.1592159689802 784.0817899819366 925.0241990905603 744.5805564976486 907.0025937139807C705.0793230133606 888.9809883374011 668.6207971780905 837.4470035315918 637.7689569407511 803.7734102960559C606.9171167034117 770.09981706052 573.6568717751832 742.9700714740079 559.4695150736127 704.9610343007649C545.282158372042 666.951997127522 552.6956256159602 617.876889491494 552.6448167313275 575.7191872565979C552.5940078466948 533.5614850217019 543.5649402725263 487.2765334044565 559.164661765816 452.014820891388C574.7643832591058 416.75310837831955 614.0470172730105 392.9316093260753 646.2431456910657 364.14891217818735C678.4392741091209 335.3662150302994 713.5787599248553 295.3463619269888 752.3414322741472 279.31863800406C791.1041046234392 263.29091408113123 835.7824014804725 268.0907755664091 878.8191797868176 267.9825686406146C921.8559580931627 267.8743617148201 972.2347368482824 262.3610435473797 1010.5621021122179 278.669396449293C1048.8894673761533 294.9777493512063 1077.8800578087112 334.8283241477436 1108.7833713704304 365.8326860520944C1139.6866849321495 396.8370479564452 1171.4726168256998 420.99231059785484 1195.981983482534 464.69556787539767C1220.491350139368 508.3988251529405 1245.6457937189534 576.8708936303259 1255.839571311435 628.0522297173513C1266.0333489039167 679.2335658043768 1275.2135029370893 732.2369202836812 1257.1446490374244 771.7835843975504C1239.0757951377595 811.3302485114195 1183.171047991641 834.0518862612748 1147.4264479134456 865.3322144005666C1111.6818478352502 896.6125425398584 1088.118730246079 951.7037485408067 1042.6770485682514 959.4655532333012C997.2353668904235 967.2273579257957 924.4591065249128 920.646869142087 874.7763578464792 911.9030425555336 " fill="url(#SvgjsLinearGradient1013)" transform="matrix(-1,1.2246467991473532e-16,-1.2246467991473532e-16,-1,1817.4366455078125,1227.3341064453125)"/></svg>